<mxfile host="app.diagrams.net" modified="2025-01-11T12:00:00.000Z" agent="5.0" version="24.2.5" etag="ai-pipeline-123" type="device">
  <diagram name="AI Pipeline Architecture" id="ai-pipeline-architecture">
    <mxGraphModel dx="1422" dy="794" grid="1" gridSize="10" guides="1" tooltips="1" connect="1" arrows="1" fold="1" page="1" pageScale="1" pageWidth="1169" pageHeight="827" math="0" shadow="0">
      <root>
        <mxCell id="0"/>
        <mxCell id="1" parent="0"/>
        
        <!-- Title -->
        <mxCell id="title" value="AI/ML Pipeline Architecture - End-to-End ML Lifecycle" style="text;html=1;strokeColor=none;fillColor=none;align=center;verticalAlign=middle;whiteSpace=wrap;rounded=0;fontSize=24;fontStyle=1;" vertex="1" parent="1">
          <mxGeometry x="184" y="20" width="801" height="40" as="geometry"/>
        </mxCell>
        
        <!-- Data Sources Layer -->
        <mxCell id="data_sources" value="Data Sources" style="rounded=1;whiteSpace=wrap;html=1;fillColor=#e1d5e7;strokeColor=#9673a6;fontSize=16;fontStyle=1;verticalAlign=top;" vertex="1" parent="1">
          <mxGeometry x="40" y="80" width="1080" height="80" as="geometry"/>
        </mxCell>
        
        <!-- Bronze Layer -->
        <mxCell id="bronze" value="🥉 Bronze Layer&#xa;Raw Data" style="rounded=1;whiteSpace=wrap;html=1;fillColor=#d4a574;strokeColor=#b8860b;fontColor=white;" vertex="1" parent="1">
          <mxGeometry x="80" y="100" width="120" height="40" as="geometry"/>
        </mxCell>
        
        <!-- Silver Layer -->
        <mxCell id="silver" value="🥈 Silver Layer&#xa;Cleaned Data" style="rounded=1;whiteSpace=wrap;html=1;fillColor=#c0c0c0;strokeColor=#666666;" vertex="1" parent="1">
          <mxGeometry x="240" y="100" width="120" height="40" as="geometry"/>
        </mxCell>
        
        <!-- Gold Layer -->
        <mxCell id="gold" value="🥇 Gold Layer&#xa;Business Data" style="rounded=1;whiteSpace=wrap;html=1;fillColor=#ffd700;strokeColor=#b8860b;" vertex="1" parent="1">
          <mxGeometry x="400" y="100" width="120" height="40" as="geometry"/>
        </mxCell>
        
        <!-- External APIs -->
        <mxCell id="external_apis" value="📡 External APIs&#xa;Market Data, Weather" style="rounded=1;whiteSpace=wrap;html=1;fillColor=#e1d5e7;strokeColor=#9673a6;" vertex="1" parent="1">
          <mxGeometry x="560" y="100" width="120" height="40" as="geometry"/>
        </mxCell>
        
        <!-- Real-time Streams -->
        <mxCell id="real_time" value="📊 Real-time Streams&#xa;Kafka, EventHub" style="rounded=1;whiteSpace=wrap;html=1;fillColor=#e1d5e7;strokeColor=#9673a6;" vertex="1" parent="1">
          <mxGeometry x="720" y="100" width="120" height="40" as="geometry"/>
        </mxCell>
        
        <!-- Feature Engineering Layer -->
        <mxCell id="feature_engineering" value="Feature Engineering &amp; Preparation" style="rounded=1;whiteSpace=wrap;html=1;fillColor=#fff2cc;strokeColor=#d6b656;fontSize=16;fontStyle=1;verticalAlign=top;" vertex="1" parent="1">
          <mxGeometry x="40" y="180" width="1080" height="100" as="geometry"/>
        </mxCell>
        
        <!-- Feature Store -->
        <mxCell id="feature_store" value="🏪 Feature Store&#xa;Centralized Features" style="rounded=1;whiteSpace=wrap;html=1;fillColor=#ffffcc;strokeColor=#d6b656;" vertex="1" parent="1">
          <mxGeometry x="80" y="210" width="140" height="50" as="geometry"/>
        </mxCell>
        
        <!-- Feature Pipeline -->
        <mxCell id="feature_pipeline" value="⚙️ Feature Pipeline&#xa;Automated Engineering" style="rounded=1;whiteSpace=wrap;html=1;fillColor=#ffffcc;strokeColor=#d6b656;" vertex="1" parent="1">
          <mxGeometry x="260" y="210" width="140" height="50" as="geometry"/>
        </mxCell>
        
        <!-- Data Validation -->
        <mxCell id="data_validation" value="✅ Data Validation&#xa;Schema &amp; Quality Checks" style="rounded=1;whiteSpace=wrap;html=1;fillColor=#ffffcc;strokeColor=#d6b656;" vertex="1" parent="1">
          <mxGeometry x="440" y="210" width="140" height="50" as="geometry"/>
        </mxCell>
        
        <!-- Feature Versioning -->
        <mxCell id="feature_versioning" value="📝 Feature Versioning&#xa;Schema Evolution" style="rounded=1;whiteSpace=wrap;html=1;fillColor=#ffffcc;strokeColor=#d6b656;" vertex="1" parent="1">
          <mxGeometry x="620" y="210" width="140" height="50" as="geometry"/>
        </mxCell>
        
        <!-- A/B Testing -->
        <mxCell id="ab_testing" value="🧪 A/B Testing&#xa;Feature Experimentation" style="rounded=1;whiteSpace=wrap;html=1;fillColor=#ffffcc;strokeColor=#d6b656;" vertex="1" parent="1">
          <mxGeometry x="800" y="210" width="140" height="50" as="geometry"/>
        </mxCell>
        
        <!-- Model Training Layer -->
        <mxCell id="model_training" value="Model Training &amp; Experimentation" style="rounded=1;whiteSpace=wrap;html=1;fillColor=#f8cecc;strokeColor=#b85450;fontSize=16;fontStyle=1;verticalAlign=top;" vertex="1" parent="1">
          <mxGeometry x="40" y="300" width="1080" height="100" as="geometry"/>
        </mxCell>
        
        <!-- AutoML -->
        <mxCell id="automl" value="🤖 AutoML&#xa;Automated Training" style="rounded=1;whiteSpace=wrap;html=1;fillColor=#ffcccc;strokeColor=#b85450;" vertex="1" parent="1">
          <mxGeometry x="80" y="330" width="140" height="50" as="geometry"/>
        </mxCell>
        
        <!-- Hyperparameter Tuning -->
        <mxCell id="hyperparameter" value="🎛️ Hyperparameter Tuning&#xa;Bayesian Optimization" style="rounded=1;whiteSpace=wrap;html=1;fillColor=#ffcccc;strokeColor=#b85450;" vertex="1" parent="1">
          <mxGeometry x="260" y="330" width="140" height="50" as="geometry"/>
        </mxCell>
        
        <!-- Cross Validation -->
        <mxCell id="cross_validation" value="📊 Cross Validation&#xa;Model Selection" style="rounded=1;whiteSpace=wrap;html=1;fillColor=#ffcccc;strokeColor=#b85450;" vertex="1" parent="1">
          <mxGeometry x="440" y="330" width="140" height="50" as="geometry"/>
        </mxCell>
        
        <!-- Distributed Training -->
        <mxCell id="distributed_training" value="🌐 Distributed Training&#xa;Multi-GPU/Node" style="rounded=1;whiteSpace=wrap;html=1;fillColor=#ffcccc;strokeColor=#b85450;" vertex="1" parent="1">
          <mxGeometry x="620" y="330" width="140" height="50" as="geometry"/>
        </mxCell>
        
        <!-- Experiment Tracking -->
        <mxCell id="experiment_tracking" value="📈 Experiment Tracking&#xa;MLflow, Weights &amp; Biases" style="rounded=1;whiteSpace=wrap;html=1;fillColor=#ffcccc;strokeColor=#b85450;" vertex="1" parent="1">
          <mxGeometry x="800" y="330" width="140" height="50" as="geometry"/>
        </mxCell>
        
        <!-- Model Management Layer -->
        <mxCell id="model_management" value="Model Management &amp; Registry" style="rounded=1;whiteSpace=wrap;html=1;fillColor=#d5e8d4;strokeColor=#82b366;fontSize=16;fontStyle=1;verticalAlign=top;" vertex="1" parent="1">
          <mxGeometry x="40" y="420" width="1080" height="100" as="geometry"/>
        </mxCell>
        
        <!-- Model Registry -->
        <mxCell id="model_registry" value="📚 Model Registry&#xa;Versioned Models" style="rounded=1;whiteSpace=wrap;html=1;fillColor=#d5f5d5;strokeColor=#82b366;" vertex="1" parent="1">
          <mxGeometry x="80" y="450" width="140" height="50" as="geometry"/>
        </mxCell>
        
        <!-- Model Validation -->
        <mxCell id="model_validation" value="✅ Model Validation&#xa;Performance Testing" style="rounded=1;whiteSpace=wrap;html=1;fillColor=#d5f5d5;strokeColor=#82b366;" vertex="1" parent="1">
          <mxGeometry x="260" y="450" width="140" height="50" as="geometry"/>
        </mxCell>
        
        <!-- Model Approval -->
        <mxCell id="model_approval" value="👍 Model Approval&#xa;Staging &amp; Production" style="rounded=1;whiteSpace=wrap;html=1;fillColor=#d5f5d5;strokeColor=#82b366;" vertex="1" parent="1">
          <mxGeometry x="440" y="450" width="140" height="50" as="geometry"/>
        </mxCell>
        
        <!-- Model Packaging -->
        <mxCell id="model_packaging" value="📦 Model Packaging&#xa;Container &amp; Deployment" style="rounded=1;whiteSpace=wrap;html=1;fillColor=#d5f5d5;strokeColor=#82b366;" vertex="1" parent="1">
          <mxGeometry x="620" y="450" width="140" height="50" as="geometry"/>
        </mxCell>
        
        <!-- Model Lineage -->
        <mxCell id="model_lineage" value="🌳 Model Lineage&#xa;Traceability &amp; Governance" style="rounded=1;whiteSpace=wrap;html=1;fillColor=#d5f5d5;strokeColor=#82b366;" vertex="1" parent="1">
          <mxGeometry x="800" y="450" width="140" height="50" as="geometry"/>
        </mxCell>
        
        <!-- Model Serving Layer -->
        <mxCell id="model_serving" value="Model Serving &amp; Inference" style="rounded=1;whiteSpace=wrap;html=1;fillColor=#dae8fc;strokeColor=#6c8ebf;fontSize=16;fontStyle=1;verticalAlign=top;" vertex="1" parent="1">
          <mxGeometry x="40" y="540" width="1080" height="100" as="geometry"/>
        </mxCell>
        
        <!-- Real-time Inference -->
        <mxCell id="real_time_inference" value="⚡ Real-time Inference&#xa;Low Latency API" style="rounded=1;whiteSpace=wrap;html=1;fillColor=#dae8fc;strokeColor=#6c8ebf;" vertex="1" parent="1">
          <mxGeometry x="80" y="570" width="140" height="50" as="geometry"/>
        </mxCell>
        
        <!-- Batch Inference -->
        <mxCell id="batch_inference" value="📊 Batch Inference&#xa;Scheduled Predictions" style="rounded=1;whiteSpace=wrap;html=1;fillColor=#dae8fc;strokeColor=#6c8ebf;" vertex="1" parent="1">
          <mxGeometry x="260" y="570" width="140" height="50" as="geometry"/>
        </mxCell>
        
        <!-- Edge Inference -->
        <mxCell id="edge_inference" value="📱 Edge Inference&#xa;On-Device Models" style="rounded=1;whiteSpace=wrap;html=1;fillColor=#dae8fc;strokeColor=#6c8ebf;" vertex="1" parent="1">
          <mxGeometry x="440" y="570" width="140" height="50" as="geometry"/>
        </mxCell>
        
        <!-- Model Scaling -->
        <mxCell id="model_scaling" value="🔄 Auto Scaling&#xa;Load Balancing" style="rounded=1;whiteSpace=wrap;html=1;fillColor=#dae8fc;strokeColor=#6c8ebf;" vertex="1" parent="1">
          <mxGeometry x="620" y="570" width="140" height="50" as="geometry"/>
        </mxCell>
        
        <!-- Inference Caching -->
        <mxCell id="inference_caching" value="💾 Inference Caching&#xa;Response Optimization" style="rounded=1;whiteSpace=wrap;html=1;fillColor=#dae8fc;strokeColor=#6c8ebf;" vertex="1" parent="1">
          <mxGeometry x="800" y="570" width="140" height="50" as="geometry"/>
        </mxCell>
        
        <!-- Monitoring & Observability Layer -->
        <mxCell id="monitoring_observability" value="Monitoring &amp; Observability" style="rounded=1;whiteSpace=wrap;html=1;fillColor=#e1bee7;strokeColor=#8e24aa;fontSize=16;fontStyle=1;verticalAlign=top;" vertex="1" parent="1">
          <mxGeometry x="40" y="660" width="1080" height="100" as="geometry"/>
        </mxCell>
        
        <!-- Model Performance -->
        <mxCell id="model_performance" value="📈 Performance Monitoring&#xa;Accuracy, Latency, Throughput" style="rounded=1;whiteSpace=wrap;html=1;fillColor=#f3e5f5;strokeColor=#8e24aa;" vertex="1" parent="1">
          <mxGeometry x="80" y="690" width="140" height="50" as="geometry"/>
        </mxCell>
        
        <!-- Drift Detection -->
        <mxCell id="drift_detection" value="🚨 Drift Detection&#xa;Data &amp; Concept Drift" style="rounded=1;whiteSpace=wrap;html=1;fillColor=#f3e5f5;strokeColor=#8e24aa;" vertex="1" parent="1">
          <mxGeometry x="260" y="690" width="140" height="50" as="geometry"/>
        </mxCell>
        
        <!-- Alerting -->
        <mxCell id="alerting" value="🔔 Alerting System&#xa;Automated Notifications" style="rounded=1;whiteSpace=wrap;html=1;fillColor=#f3e5f5;strokeColor=#8e24aa;" vertex="1" parent="1">
          <mxGeometry x="440" y="690" width="140" height="50" as="geometry"/>
        </mxCell>
        
        <!-- Model Explainability -->
        <mxCell id="explainability" value="💡 Model Explainability&#xa;SHAP, LIME, Feature Importance" style="rounded=1;whiteSpace=wrap;html=1;fillColor=#f3e5f5;strokeColor=#8e24aa;" vertex="1" parent="1">
          <mxGeometry x="620" y="690" width="140" height="50" as="geometry"/>
        </mxCell>
        
        <!-- Bias Detection -->
        <mxCell id="bias_detection" value="⚖️ Bias Detection&#xa;Fairness Monitoring" style="rounded=1;whiteSpace=wrap;html=1;fillColor=#f3e5f5;strokeColor=#8e24aa;" vertex="1" parent="1">
          <mxGeometry x="800" y="690" width="140" height="50" as="geometry"/>
        </mxCell>
        
        <!-- Flow arrows -->
        <!-- Data Sources to Feature Engineering -->
        <mxCell id="flow1" value="" style="endArrow=classic;html=1;rounded=0;strokeWidth=3;strokeColor=#9673a6;" edge="1" parent="1">
          <mxGeometry width="50" height="50" relative="1" as="geometry">
            <mxPoint x="580" y="160" as="sourcePoint"/>
            <mxPoint x="580" y="180" as="targetPoint"/>
          </mxGeometry>
        </mxCell>
        
        <!-- Feature Engineering to Model Training -->
        <mxCell id="flow2" value="" style="endArrow=classic;html=1;rounded=0;strokeWidth=3;strokeColor=#d6b656;" edge="1" parent="1">
          <mxGeometry width="50" height="50" relative="1" as="geometry">
            <mxPoint x="580" y="280" as="sourcePoint"/>
            <mxPoint x="580" y="300" as="targetPoint"/>
          </mxGeometry>
        </mxCell>
        
        <!-- Model Training to Model Management -->
        <mxCell id="flow3" value="" style="endArrow=classic;html=1;rounded=0;strokeWidth=3;strokeColor=#b85450;" edge="1" parent="1">
          <mxGeometry width="50" height="50" relative="1" as="geometry">
            <mxPoint x="580" y="400" as="sourcePoint"/>
            <mxPoint x="580" y="420" as="targetPoint"/>
          </mxGeometry>
        </mxCell>
        
        <!-- Model Management to Model Serving -->
        <mxCell id="flow4" value="" style="endArrow=classic;html=1;rounded=0;strokeWidth=3;strokeColor=#82b366;" edge="1" parent="1">
          <mxGeometry width="50" height="50" relative="1" as="geometry">
            <mxPoint x="580" y="520" as="sourcePoint"/>
            <mxPoint x="580" y="540" as="targetPoint"/>
          </mxGeometry>
        </mxCell>
        
        <!-- Model Serving to Monitoring -->
        <mxCell id="flow5" value="" style="endArrow=classic;html=1;rounded=0;strokeWidth=3;strokeColor=#6c8ebf;" edge="1" parent="1">
          <mxGeometry width="50" height="50" relative="1" as="geometry">
            <mxPoint x="580" y="640" as="sourcePoint"/>
            <mxPoint x="580" y="660" as="targetPoint"/>
          </mxGeometry>
        </mxCell>
        
        <!-- Feedback loops -->
        <!-- Monitoring back to Feature Engineering -->
        <mxCell id="feedback1" value="Feedback Loop" style="endArrow=classic;html=1;rounded=0;strokeWidth=2;strokeColor=#ff6666;strokeStyle=dashed;" edge="1" parent="1">
          <mxGeometry width="50" height="50" relative="1" as="geometry">
            <mxPoint x="40" y="720" as="sourcePoint"/>
            <mxPoint x="40" y="240" as="targetPoint"/>
            <Array as="points">
              <mxPoint x="20" y="720"/>
              <mxPoint x="20" y="240"/>
            </Array>
          </mxGeometry>
        </mxCell>
        
        <!-- Monitoring back to Model Training -->
        <mxCell id="feedback2" value="Retraining Trigger" style="endArrow=classic;html=1;rounded=0;strokeWidth=2;strokeColor=#ff6666;strokeStyle=dashed;" edge="1" parent="1">
          <mxGeometry width="50" height="50" relative="1" as="geometry">
            <mxPoint x="1120" y="720" as="sourcePoint"/>
            <mxPoint x="1120" y="360" as="targetPoint"/>
            <Array as="points">
              <mxPoint x="1140" y="720"/>
              <mxPoint x="1140" y="360"/>
            </Array>
          </mxGeometry>
        </mxCell>
        
      </root>
    </mxGraphModel>
  </diagram>
</mxfile>